<?xml version="1.0" encoding="UTF-8" standalone="no"?>
<!-- Created with Inkscape (http://www.inkscape.org/) -->

<svg
   xmlns:dc="http://purl.org/dc/elements/1.1/"
   xmlns:cc="http://creativecommons.org/ns#"
   xmlns:rdf="http://www.w3.org/1999/02/22-rdf-syntax-ns#"
   xmlns:svg="http://www.w3.org/2000/svg"
   xmlns="http://www.w3.org/2000/svg"
   xmlns:sodipodi="http://sodipodi.sourceforge.net/DTD/sodipodi-0.dtd"
   xmlns:inkscape="http://www.inkscape.org/namespaces/inkscape"
   width="153"
   height="36"
   viewBox="0 0 40.48125 9.5250003"
   version="1.1"
   id="svg39829"
   inkscape:version="0.92.0 r15299"
   sodipodi:docname="flutter.svg">
  <defs
     id="defs39823" />
  <sodipodi:namedview
     id="base"
     pagecolor="#ffffff"
     bordercolor="#666666"
     borderopacity="1.0"
     inkscape:pageopacity="0.0"
     inkscape:pageshadow="2"
     inkscape:zoom="5.9013159"
     inkscape:cx="75.999999"
     inkscape:cy="17.5"
     inkscape:document-units="mm"
     inkscape:current-layer="layer1"
     showgrid="false"
     fit-margin-top="0"
     fit-margin-left="0"
     fit-margin-right="0"
     fit-margin-bottom="0"
     units="px"
     inkscape:window-width="1280"
     inkscape:window-height="744"
     inkscape:window-x="-4"
     inkscape:window-y="-4"
     inkscape:window-maximized="1" />
  <metadata
     id="metadata39826">
    <rdf:RDF>
      <cc:Work
         rdf:about="">
        <dc:format>image/svg+xml</dc:format>
        <dc:type
           rdf:resource="http://purl.org/dc/dcmitype/StillImage" />
        <dc:title></dc:title>
      </cc:Work>
    </rdf:RDF>
  </metadata>
  <g
     inkscape:label="Layer 1"
     inkscape:groupmode="layer"
     id="layer1"
     transform="translate(-10.129762,-148.47426)">
    <g
       id="g39701"
       transform="matrix(0.26458333,0,0,0.26458333,10.156221,148.50072)"
       style="fill:#323232;fill-opacity:1">
      <rect
         id="rect39677"
         height="34.200001"
         width="6"
         class="st0"
         y="0.40000001"
         x="30"
         style="fill:#323232;fill-opacity:1" />
      <path
         id="path39679"
         d="m 57.5,22.9 c 0,0.9 -0.1,1.8 -0.4,2.6 -0.3,0.8 -0.7,1.5 -1.2,2.2 -0.5,0.6 -1.1,1.1 -1.8,1.4 -0.7,0.3 -1.5,0.5 -2.3,0.5 -1.3,0 -2.4,-0.4 -3.2,-1.3 -0.8,-0.9 -1.2,-2.2 -1.2,-3.8 v -16 h -6 v 16 c 0,3.2 0.8,5.8 2.3,7.7 1.5,1.9 3.8,2.9 6.8,2.9 0.9,0 1.8,-0.1 2.5,-0.3 0.7,-0.2 1.4,-0.5 2,-0.8 0.6,-0.3 1.1,-0.7 1.5,-1.1 0.4,-0.4 0.8,-0.8 1.1,-1.1 l 0.2,2.9 h 5.7 V 8.5 h -6 z"
         class="st0"
         inkscape:connector-curvature="0"
         style="fill:#323232;fill-opacity:1" />
      <path
         id="path39681"
         d="M 82.8,29.6 C 82.2,29.9 81.5,30 80.6,30 79.6,30 78.9,29.6 78.4,28.8 77.9,28 77.7,26.9 77.7,25.4 V 14.1 H 84 V 8.5 H 77.6 V 0.4 h -6 v 8.1 h -4 V 14 h 4 v 11.8 c 0,1.4 0.1,2.7 0.4,3.9 0.3,1.2 0.7,2.2 1.3,3 0.6,0.8 1.4,1.5 2.5,1.9 1,0.5 2.2,0.7 3.7,0.7 1.4,0 2.7,-0.2 3.8,-0.7 1.1,-0.5 2.3,-1.2 3.5,-2.3 l -2.5,-4 c -0.4,0.6 -1,1 -1.5,1.3 z"
         class="st0"
         inkscape:connector-curvature="0"
         style="fill:#323232;fill-opacity:1" />
      <path
         id="path39683"
         d="M 103.2,29.6 C 102.6,29.9 101.9,30 101,30 100,30 99.3,29.6 98.8,28.8 98.3,28 98.1,26.9 98.1,25.4 V 14.1 h 6.4 V 8.5 H 98.1 V 0.4 h -6 v 8.1 h -4 V 14 h 4 v 11.8 c 0,1.4 0.1,2.7 0.4,3.9 0.3,1.2 0.7,2.2 1.3,3 0.6,0.8 1.4,1.5 2.5,1.9 1,0.5 2.2,0.7 3.7,0.7 1.4,0 2.7,-0.2 3.8,-0.7 1.1,-0.5 2.3,-1.2 3.5,-2.3 l -2.5,-4 c -0.5,0.6 -1,1 -1.6,1.3 z"
         class="st0"
         inkscape:connector-curvature="0"
         style="fill:#323232;fill-opacity:1" />
      <path
         id="path39685"
         d="m 129.4,12.8 c -0.9,-1.4 -2.1,-2.5 -3.6,-3.4 -1.5,-0.9 -3.3,-1.3 -5.5,-1.3 -1.8,0 -3.4,0.3 -4.9,1 -1.5,0.7 -2.7,1.6 -3.8,2.8 -1.1,1.2 -1.9,2.6 -2.5,4.2 -0.6,1.6 -0.9,3.4 -0.9,5.3 0,2.1 0.3,4 0.9,5.7 0.6,1.7 1.4,3.2 2.5,4.4 1.1,1.2 2.4,2.2 4,2.9 1.5,0.7 3.3,1 5.2,1 1.9,0 3.4,-0.2 4.8,-0.7 1.3,-0.4 2.4,-0.9 3.3,-1.5 0.9,-0.5 1.5,-1.1 2,-1.6 0.5,-0.5 0.7,-0.8 0.8,-0.9 l -3.2,-3.9 c -0.2,0.2 -0.5,0.5 -0.9,0.8 -0.4,0.3 -0.9,0.7 -1.5,1 -0.6,0.3 -1.3,0.6 -2.2,0.8 -0.9,0.2 -1.9,0.4 -3,0.4 -0.8,0 -1.6,-0.1 -2.3,-0.4 -0.8,-0.3 -1.5,-0.7 -2.1,-1.3 -0.6,-0.5 -1.1,-1.2 -1.5,-2 -0.4,-0.8 -0.6,-1.6 -0.6,-2.6 H 132 v -0.9 c 0,-1.8 -0.2,-3.6 -0.6,-5.4 -0.4,-1.5 -1.1,-3 -2,-4.4 z m -15.2,6.3 c 0,-0.7 0.1,-1.3 0.4,-2 0.3,-0.7 0.7,-1.2 1.2,-1.8 0.5,-0.5 1.1,-1 1.9,-1.3 0.8,-0.3 1.6,-0.5 2.6,-0.5 0.9,0 1.7,0.2 2.4,0.5 0.7,0.3 1.3,0.8 1.7,1.3 0.5,0.5 0.8,1.1 1,1.8 0.2,0.7 0.4,1.3 0.4,2 z"
         class="st0"
         inkscape:connector-curvature="0"
         style="fill:#323232;fill-opacity:1" />
      <path
         id="path39687"
         d="m 151,8.3 c -0.5,-0.1 -1,-0.1 -1.5,-0.1 -1,0 -1.8,0.1 -2.6,0.4 -0.8,0.3 -1.4,0.6 -2,0.9 -0.6,0.4 -1.1,0.8 -1.5,1.2 -0.4,0.4 -0.8,0.8 -1,1.2 l -0.2,-3.4 h -5.7 v 26.1 h 6 V 20.5 c 0,-0.9 0.2,-1.8 0.5,-2.6 0.3,-0.8 0.7,-1.4 1.3,-2 0.5,-0.5 1.2,-1 1.9,-1.3 0.7,-0.3 1.5,-0.4 2.3,-0.4 0.6,0 1.1,0 1.5,0.1 0.4,0.1 0.8,0.2 1.2,0.4 l 1.2,-6.1 c -0.5,-0.1 -1,-0.2 -1.4,-0.3 z"
         class="st0"
         inkscape:connector-curvature="0"
         style="fill:#323232;fill-opacity:1" />
      <rect
         id="rect39689"
         height="6.9000001"
         width="25.299999"
         class="st0"
         y="0.40000001"
         x="0.40000001"
         style="fill:#323232;fill-opacity:1" />
      <rect
         id="rect39691"
         height="6.9000001"
         width="19"
         class="st0"
         y="14.1"
         x="0.40000001"
         style="fill:#323232;fill-opacity:1" />
      <rect
         id="rect39693"
         height="6.8000002"
         width="6.3000002"
         class="st0"
         y="27.799999"
         x="0.40000001"
         style="fill:#323232;fill-opacity:1" />
      <g
         id="g39699"
         style="fill:#323232;fill-opacity:1">
        <path
           id="path39695"
           d="m 147,1.1 h -1 V 0.4 h 2.8 v 0.7 h -1 V 3.8 H 147 Z"
           class="st0"
           inkscape:connector-curvature="0"
           style="fill:#323232;fill-opacity:1" />
        <path
           id="path39697"
           d="m 149.2,0.4 h 0.7 l 0.8,1.6 0.8,-1.6 h 0.7 l 0.1,3.4 h -0.7 l -0.1,-2.2 -0.7,1.3 h -0.4 l -0.7,-1.3 -0.1,2.2 h -0.7 z"
           class="st0"
           inkscape:connector-curvature="0"
           style="fill:#323232;fill-opacity:1" />
      </g>
    </g>
  </g>
</svg>
