<svg viewBox="0 0 100 100" xmlns="http://www.w3.org/2000/svg" role="img" aria-label="Monzo"><title>Monzo</title><rect width="100" height="100" rx="22" fill="#112236"/><g transform="translate(22 22) scale(2.333)"><path fill="#5BD3B5" d="M4.244 1.174a.443.443 0 00-.271.13l-3.97 3.97-.001.001c3.884 3.882 8.093 8.092 11.748 11.748v-8.57L4.602 1.305a.443.443 0 00-.358-.131z"/><path fill="#B7E040" d="M19.727 1.174a.443.443 0 00-.329.13L12.25 8.456v8.568L24 5.275c-1.316-1.322-2.647-2.648-3.97-3.97a.443.443 0 00-.301-.131z"/><path fill="#1A91B0" d="M0 5.979l.002 10.955c0 .294.118.577.326.785l4.973 4.976c.28.282.76.083.758-.314V12.037z"/><path fill="#FB4F40" d="M23.998 5.982l-6.06 6.061v10.338c-.004.399.48.6.76.314l4.974-4.976c.208-.208.326-.49.326-.785z"/></g></svg>
